<svg width="22" height="19" viewBox="0 0 22 19" fill="none" xmlns="http://www.w3.org/2000/svg">
<path fill-rule="evenodd" clip-rule="evenodd" d="M1.70711 17.2635C1.31658 17.654 1.31658 18.2871 1.70711 18.6777C2.09763 19.0682 2.7308 19.0682 3.12132 18.6777L7.49145 14.3075C7.58747 14.4251 7.68978 14.5383 7.79815 14.6466C8.64674 15.4943 9.79766 15.9706 10.9977 15.9706C11.592 15.9706 12.1804 15.8536 12.7293 15.6265C13.2783 15.3993 13.7771 15.0663 14.1973 14.6466C14.6175 14.2268 14.9508 13.7285 15.1782 13.1801C15.4056 12.6317 15.5226 12.0438 15.5226 11.4502C15.5226 10.8566 15.4056 10.2688 15.1782 9.72037C14.9508 9.17193 14.6175 8.67361 14.1973 8.25386C14.0882 8.14481 13.9737 8.04161 13.8544 7.9446L15.8267 5.97234C16.2009 6.18935 16.5618 6.4323 16.9064 6.70023C18.5963 8.01427 19.7991 9.85408 20.3241 11.9282C20.3489 12.0384 20.3955 12.1425 20.4612 12.2344C20.5269 12.3264 20.6103 12.4042 20.7065 12.4635C20.8027 12.5228 20.9099 12.5622 21.0216 12.5796C21.1333 12.5969 21.2473 12.5917 21.357 12.5644C21.4667 12.5371 21.5698 12.4881 21.6603 12.4204C21.7508 12.3527 21.8268 12.2676 21.8839 12.1701C21.941 12.0726 21.978 11.9647 21.9928 11.8527C22.0075 11.7407 21.9997 11.6269 21.9698 11.518C21.2505 8.64843 19.4547 6.25171 17.0655 4.73348L20.0919 1.70711C20.4824 1.31658 20.4824 0.683417 20.0919 0.292893C19.7014 -0.0976312 19.0682 -0.0976308 18.6777 0.292893L15.1948 3.77578C13.8912 3.25501 12.4731 2.97056 10.9977 2.97056C8.47617 2.97075 6.02692 3.81238 4.03881 5.36185C2.05069 6.91131 0.63764 9.07981 0.0239798 11.5231C-0.0288856 11.7405 0.00643681 11.9699 0.122243 12.1614C0.23805 12.3529 0.424945 12.4909 0.642169 12.5452C0.859393 12.5996 1.08932 12.5659 1.28181 12.4516C1.4743 12.3373 1.61374 12.1516 1.6697 11.935C2.19317 9.86048 3.39459 8.01979 5.08362 6.70453C6.77264 5.38927 8.8527 4.67464 10.9942 4.67386C11.9731 4.6735 12.9392 4.8223 13.8611 5.10945L11.9413 7.02926C11.6319 6.96335 11.3156 6.92989 10.9977 6.92989C9.79766 6.92989 8.64674 7.40613 7.79815 8.25386C6.94957 9.10159 6.47284 10.2514 6.47284 11.4502C6.47284 11.7711 6.50698 12.0884 6.57326 12.3973L1.70711 17.2635ZM8.70055 13.0984C8.78943 13.2221 8.88872 13.3391 8.99785 13.4481C9.52825 13.978 10.2476 14.2756 10.9977 14.2756C11.7478 14.2756 12.4672 13.978 12.9976 13.4481C13.528 12.9182 13.826 12.1996 13.826 11.4502C13.826 10.7009 13.528 9.98222 12.9976 9.45235C12.8878 9.34265 12.7699 9.2429 12.6453 9.15369L8.70055 13.0984ZM10.2434 8.72713L8.27114 10.6994C8.40014 10.232 8.64861 9.80124 8.99785 9.45235C9.3464 9.10414 9.77657 8.85621 10.2434 8.72713Z" fill="#3548F5"/>
</svg>
