<svg width="22" height="13" viewBox="0 0 22 13" fill="none" xmlns="http://www.w3.org/2000/svg">
<path d="M10.9977 3.95932C11.592 3.95932 12.1804 4.07624 12.7293 4.30341C13.2783 4.53058 13.7771 4.86355 14.1973 5.2833C14.6175 5.70305 14.9508 6.20137 15.1782 6.7498C15.4056 7.29823 15.5226 7.88604 15.5226 8.47966C15.5226 9.07328 15.4056 9.66109 15.1782 10.2095C14.9508 10.758 14.6175 11.2563 14.1973 11.676C13.7771 12.0958 13.2783 12.4287 12.7293 12.6559C12.1804 12.8831 11.592 13 10.9977 13C9.79766 13 8.64674 12.5238 7.79815 11.676C6.94957 10.8283 6.47284 9.67853 6.47284 8.47966C6.47284 7.28079 6.94957 6.13103 7.79815 5.2833C8.64674 4.43557 9.79766 3.95932 10.9977 3.95932ZM10.9977 5.65424C10.2476 5.65424 9.52825 5.95191 8.99785 6.48178C8.46744 7.01165 8.16947 7.73031 8.16947 8.47966C8.16947 9.22901 8.46744 9.94767 8.99785 10.4775C9.52825 11.0074 10.2476 11.3051 10.9977 11.3051C11.7478 11.3051 12.4672 11.0074 12.9976 10.4775C13.528 9.94767 13.826 9.22901 13.826 8.47966C13.826 7.73031 13.528 7.01165 12.9976 6.48178C12.4672 5.95191 11.7478 5.65424 10.9977 5.65424ZM10.9977 0C16.2165 0 20.7194 3.55932 21.9698 8.54746C21.9997 8.65638 22.0075 8.77017 21.9928 8.88214C21.978 8.99412 21.941 9.10202 21.8839 9.19951C21.8268 9.29699 21.7508 9.38209 21.6603 9.44981C21.5698 9.51753 21.4667 9.5665 21.357 9.59383C21.2473 9.62117 21.1333 9.62633 21.0216 9.60901C20.9099 9.59169 20.8027 9.55223 20.7065 9.49296C20.6103 9.43369 20.5269 9.35579 20.4612 9.26386C20.3955 9.17193 20.3489 9.06781 20.3241 8.95763C19.7991 6.88351 18.5963 5.0437 16.9064 3.72967C15.2164 2.41563 13.1358 1.70252 10.9942 1.7033C8.8527 1.70407 6.77264 2.4187 5.08362 3.73397C3.39459 5.04923 2.19317 6.88991 1.6697 8.96441C1.61374 9.18102 1.4743 9.36674 1.28181 9.48106C1.08932 9.59538 0.859393 9.62902 0.642169 9.57466C0.424945 9.5203 0.23805 9.38233 0.122243 9.19086C0.00643681 8.99938 -0.0288856 8.76993 0.0239798 8.55254C0.63764 6.10925 2.05069 3.94075 4.03881 2.39128C6.02692 0.841817 8.47617 0.000187104 10.9977 0Z" fill="#3548F5"/>
</svg>
